<mxfile host="app.diagrams.net" modified="2022-02-14T10:11:52.368Z" agent="5.0 (Macintosh; Intel Mac OS X 10_15_7) AppleWebKit/537.36 (KHTML, like Gecko) Chrome/98.0.4758.80 Safari/537.36" etag="AKO5t6wMH4Ef60X80CFG" version="16.0.2" type="github">
  <diagram name="Page-1" id="7e0a89b8-554c-2b80-1dc8-d5c74ca68de4">
    <mxGraphModel dx="1275" dy="700" grid="1" gridSize="10" guides="1" tooltips="1" connect="1" arrows="0" fold="1" page="1" pageScale="1" pageWidth="1169" pageHeight="827" background="none" math="0" shadow="0">
      <root>
        <mxCell id="0" />
        <mxCell id="1" parent="0" />
        <mxCell id="n_MndKxWnpL39BQ449wi-1" value="" style="swimlane;startSize=0;" vertex="1" parent="1">
          <mxGeometry x="400" y="47" width="160" height="320" as="geometry" />
        </mxCell>
        <mxCell id="n_MndKxWnpL39BQ449wi-43" value="&lt;font style=&quot;font-size: 10px&quot;&gt;D5&lt;/font&gt;" style="text;html=1;strokeColor=none;fillColor=none;align=center;verticalAlign=middle;whiteSpace=wrap;rounded=0;" vertex="1" parent="n_MndKxWnpL39BQ449wi-1">
          <mxGeometry x="129" y="120" width="30" height="20" as="geometry" />
        </mxCell>
        <mxCell id="n_MndKxWnpL39BQ449wi-39" value="&lt;font style=&quot;font-size: 10px&quot;&gt;D4&lt;/font&gt;" style="text;html=1;strokeColor=none;fillColor=none;align=center;verticalAlign=middle;whiteSpace=wrap;rounded=0;" vertex="1" parent="n_MndKxWnpL39BQ449wi-1">
          <mxGeometry x="130" y="97" width="30" height="20" as="geometry" />
        </mxCell>
        <mxCell id="n_MndKxWnpL39BQ449wi-38" value="&lt;font style=&quot;font-size: 10px&quot;&gt;D3&lt;/font&gt;" style="text;html=1;strokeColor=none;fillColor=none;align=center;verticalAlign=middle;whiteSpace=wrap;rounded=0;" vertex="1" parent="n_MndKxWnpL39BQ449wi-1">
          <mxGeometry x="130" y="77" width="30" height="20" as="geometry" />
        </mxCell>
        <mxCell id="n_MndKxWnpL39BQ449wi-37" value="&lt;font style=&quot;font-size: 10px&quot;&gt;D2&lt;/font&gt;" style="text;html=1;strokeColor=none;fillColor=none;align=center;verticalAlign=middle;whiteSpace=wrap;rounded=0;" vertex="1" parent="n_MndKxWnpL39BQ449wi-1">
          <mxGeometry x="130" y="57" width="30" height="20" as="geometry" />
        </mxCell>
        <mxCell id="n_MndKxWnpL39BQ449wi-54" value="&lt;font style=&quot;font-size: 10px&quot;&gt;D11&lt;/font&gt;" style="text;html=1;strokeColor=none;fillColor=none;align=center;verticalAlign=middle;whiteSpace=wrap;rounded=0;" vertex="1" parent="n_MndKxWnpL39BQ449wi-1">
          <mxGeometry x="129" y="170" width="30" height="20" as="geometry" />
        </mxCell>
        <mxCell id="n_MndKxWnpL39BQ449wi-36" value="&lt;font style=&quot;font-size: 10px&quot;&gt;D12&lt;/font&gt;" style="text;html=1;strokeColor=none;fillColor=none;align=center;verticalAlign=middle;whiteSpace=wrap;rounded=0;" vertex="1" parent="n_MndKxWnpL39BQ449wi-1">
          <mxGeometry x="129" y="190" width="30" height="20" as="geometry" />
        </mxCell>
        <mxCell id="n_MndKxWnpL39BQ449wi-33" value="&lt;font style=&quot;font-size: 10px&quot;&gt;5v&lt;/font&gt;" style="text;html=1;strokeColor=none;fillColor=none;align=center;verticalAlign=middle;whiteSpace=wrap;rounded=0;" vertex="1" parent="n_MndKxWnpL39BQ449wi-1">
          <mxGeometry x="110" y="293" width="30" height="20" as="geometry" />
        </mxCell>
        <mxCell id="n_MndKxWnpL39BQ449wi-32" value="&lt;font style=&quot;font-size: 10px&quot;&gt;GND&lt;/font&gt;" style="text;html=1;strokeColor=none;fillColor=none;align=center;verticalAlign=middle;whiteSpace=wrap;rounded=0;" vertex="1" parent="n_MndKxWnpL39BQ449wi-1">
          <mxGeometry x="20" y="300" width="30" height="20" as="geometry" />
        </mxCell>
        <mxCell id="n_MndKxWnpL39BQ449wi-81" value="Arduino" style="text;html=1;strokeColor=none;fillColor=none;align=center;verticalAlign=middle;whiteSpace=wrap;rounded=0;fontSize=14;" vertex="1" parent="n_MndKxWnpL39BQ449wi-1">
          <mxGeometry x="40" width="60" height="30" as="geometry" />
        </mxCell>
        <mxCell id="n_MndKxWnpL39BQ449wi-2" value="" style="swimlane;startSize=0;" vertex="1" parent="1">
          <mxGeometry x="821" y="39" width="120" height="321" as="geometry" />
        </mxCell>
        <mxCell id="n_MndKxWnpL39BQ449wi-5" value="LCD (44780)" style="text;html=1;strokeColor=none;fillColor=none;align=center;verticalAlign=middle;whiteSpace=wrap;rounded=0;" vertex="1" parent="n_MndKxWnpL39BQ449wi-2">
          <mxGeometry x="20" width="100" height="30" as="geometry" />
        </mxCell>
        <mxCell id="n_MndKxWnpL39BQ449wi-12" value="&lt;font style=&quot;font-size: 10px&quot;&gt;DB 7&lt;/font&gt;" style="text;html=1;strokeColor=none;fillColor=none;align=center;verticalAlign=middle;whiteSpace=wrap;rounded=0;" vertex="1" parent="n_MndKxWnpL39BQ449wi-2">
          <mxGeometry x="2" y="69" width="30" height="20" as="geometry" />
        </mxCell>
        <mxCell id="n_MndKxWnpL39BQ449wi-16" value="&lt;font style=&quot;font-size: 10px&quot;&gt;DB 6&lt;/font&gt;" style="text;html=1;strokeColor=none;fillColor=none;align=center;verticalAlign=middle;whiteSpace=wrap;rounded=0;" vertex="1" parent="n_MndKxWnpL39BQ449wi-2">
          <mxGeometry x="2" y="89" width="30" height="20" as="geometry" />
        </mxCell>
        <mxCell id="n_MndKxWnpL39BQ449wi-15" value="&lt;font style=&quot;font-size: 10px&quot;&gt;DB 5&lt;/font&gt;" style="text;html=1;strokeColor=none;fillColor=none;align=center;verticalAlign=middle;whiteSpace=wrap;rounded=0;" vertex="1" parent="n_MndKxWnpL39BQ449wi-2">
          <mxGeometry x="1" y="107" width="30" height="20" as="geometry" />
        </mxCell>
        <mxCell id="n_MndKxWnpL39BQ449wi-14" value="&lt;font style=&quot;font-size: 10px&quot;&gt;DB 4&lt;/font&gt;" style="text;html=1;strokeColor=none;fillColor=none;align=center;verticalAlign=middle;whiteSpace=wrap;rounded=0;" vertex="1" parent="n_MndKxWnpL39BQ449wi-2">
          <mxGeometry x="2" y="130" width="30" height="20" as="geometry" />
        </mxCell>
        <mxCell id="n_MndKxWnpL39BQ449wi-21" value="&lt;font style=&quot;font-size: 10px&quot;&gt;E&lt;/font&gt;" style="text;html=1;strokeColor=none;fillColor=none;align=center;verticalAlign=middle;whiteSpace=wrap;rounded=0;" vertex="1" parent="n_MndKxWnpL39BQ449wi-2">
          <mxGeometry y="179" width="30" height="20" as="geometry" />
        </mxCell>
        <mxCell id="n_MndKxWnpL39BQ449wi-22" value="&lt;font style=&quot;font-size: 10px&quot;&gt;RS&lt;/font&gt;" style="text;html=1;strokeColor=none;fillColor=none;align=center;verticalAlign=middle;whiteSpace=wrap;rounded=0;" vertex="1" parent="n_MndKxWnpL39BQ449wi-2">
          <mxGeometry y="199" width="30" height="20" as="geometry" />
        </mxCell>
        <mxCell id="n_MndKxWnpL39BQ449wi-24" value="&lt;font style=&quot;font-size: 10px&quot;&gt;VSS&lt;/font&gt;" style="text;html=1;strokeColor=none;fillColor=none;align=center;verticalAlign=middle;whiteSpace=wrap;rounded=0;" vertex="1" parent="n_MndKxWnpL39BQ449wi-2">
          <mxGeometry x="79" y="301" width="30" height="20" as="geometry" />
        </mxCell>
        <mxCell id="n_MndKxWnpL39BQ449wi-25" value="&lt;font style=&quot;font-size: 10px&quot;&gt;VDD&lt;/font&gt;" style="text;html=1;strokeColor=none;fillColor=none;align=center;verticalAlign=middle;whiteSpace=wrap;rounded=0;" vertex="1" parent="n_MndKxWnpL39BQ449wi-2">
          <mxGeometry x="9" y="301" width="30" height="20" as="geometry" />
        </mxCell>
        <mxCell id="n_MndKxWnpL39BQ449wi-7" value="&lt;font style=&quot;font-size: 10px&quot;&gt;K (LCD+)&lt;/font&gt;" style="text;html=1;strokeColor=none;fillColor=none;align=center;verticalAlign=middle;whiteSpace=wrap;rounded=0;" vertex="1" parent="n_MndKxWnpL39BQ449wi-2">
          <mxGeometry y="40" width="60" height="30" as="geometry" />
        </mxCell>
        <mxCell id="n_MndKxWnpL39BQ449wi-6" value="&lt;font style=&quot;font-size: 10px&quot;&gt;A (LCD -)&lt;/font&gt;" style="text;html=1;strokeColor=none;fillColor=none;align=center;verticalAlign=middle;whiteSpace=wrap;rounded=0;" vertex="1" parent="n_MndKxWnpL39BQ449wi-2">
          <mxGeometry y="30" width="60" height="20" as="geometry" />
        </mxCell>
        <mxCell id="n_MndKxWnpL39BQ449wi-46" value="&lt;font style=&quot;font-size: 10px&quot;&gt;V0&lt;/font&gt;" style="text;html=1;strokeColor=none;fillColor=none;align=center;verticalAlign=middle;whiteSpace=wrap;rounded=0;" vertex="1" parent="n_MndKxWnpL39BQ449wi-2">
          <mxGeometry y="266" width="30" height="20" as="geometry" />
        </mxCell>
        <mxCell id="n_MndKxWnpL39BQ449wi-26" value="&lt;font style=&quot;font-size: 10px&quot;&gt;R/W&lt;/font&gt;" style="text;html=1;strokeColor=none;fillColor=none;align=center;verticalAlign=middle;whiteSpace=wrap;rounded=0;" vertex="1" parent="n_MndKxWnpL39BQ449wi-2">
          <mxGeometry x="-1" y="231" width="40" height="20" as="geometry" />
        </mxCell>
        <mxCell id="n_MndKxWnpL39BQ449wi-48" style="edgeStyle=none;rounded=0;orthogonalLoop=1;jettySize=auto;html=1;exitX=0.5;exitY=0;exitDx=0;exitDy=0;fontSize=10;" edge="1" parent="1" source="n_MndKxWnpL39BQ449wi-1" target="n_MndKxWnpL39BQ449wi-1">
          <mxGeometry relative="1" as="geometry" />
        </mxCell>
        <mxCell id="n_MndKxWnpL39BQ449wi-49" style="edgeStyle=none;rounded=0;orthogonalLoop=1;jettySize=auto;html=1;exitX=1;exitY=0.5;exitDx=0;exitDy=0;entryX=0;entryY=0.5;entryDx=0;entryDy=0;fontSize=10;endArrow=oval;endFill=1;startArrow=oval;startFill=1;fillColor=#dae8fc;strokeColor=#6c8ebf;" edge="1" parent="1" source="n_MndKxWnpL39BQ449wi-37" target="n_MndKxWnpL39BQ449wi-12">
          <mxGeometry relative="1" as="geometry" />
        </mxCell>
        <mxCell id="n_MndKxWnpL39BQ449wi-50" style="edgeStyle=none;rounded=0;orthogonalLoop=1;jettySize=auto;html=1;exitX=1;exitY=0.5;exitDx=0;exitDy=0;fontSize=10;endArrow=oval;endFill=1;startArrow=oval;startFill=1;fillColor=#dae8fc;strokeColor=#6c8ebf;" edge="1" parent="1">
          <mxGeometry relative="1" as="geometry">
            <mxPoint x="560" y="134" as="sourcePoint" />
            <mxPoint x="823" y="137.78417266187046" as="targetPoint" />
          </mxGeometry>
        </mxCell>
        <mxCell id="n_MndKxWnpL39BQ449wi-51" style="edgeStyle=none;rounded=0;orthogonalLoop=1;jettySize=auto;html=1;exitX=1;exitY=0.5;exitDx=0;exitDy=0;fontSize=10;endArrow=oval;endFill=1;startArrow=oval;startFill=1;fillColor=#dae8fc;strokeColor=#6c8ebf;" edge="1" parent="1" source="n_MndKxWnpL39BQ449wi-39" target="n_MndKxWnpL39BQ449wi-15">
          <mxGeometry relative="1" as="geometry" />
        </mxCell>
        <mxCell id="n_MndKxWnpL39BQ449wi-52" style="edgeStyle=none;rounded=0;orthogonalLoop=1;jettySize=auto;html=1;exitX=1;exitY=0.5;exitDx=0;exitDy=0;entryX=0;entryY=0.5;entryDx=0;entryDy=0;fontSize=10;endArrow=oval;endFill=1;startArrow=oval;startFill=1;fillColor=#dae8fc;strokeColor=#6c8ebf;" edge="1" parent="1" source="n_MndKxWnpL39BQ449wi-43" target="n_MndKxWnpL39BQ449wi-14">
          <mxGeometry relative="1" as="geometry" />
        </mxCell>
        <mxCell id="n_MndKxWnpL39BQ449wi-55" style="edgeStyle=none;rounded=0;orthogonalLoop=1;jettySize=auto;html=1;exitX=1;exitY=0.5;exitDx=0;exitDy=0;fontSize=10;endArrow=oval;endFill=1;startArrow=oval;startFill=1;fillColor=#fff2cc;strokeColor=#d6b656;" edge="1" parent="1" source="n_MndKxWnpL39BQ449wi-54" target="n_MndKxWnpL39BQ449wi-21">
          <mxGeometry relative="1" as="geometry" />
        </mxCell>
        <mxCell id="n_MndKxWnpL39BQ449wi-59" style="edgeStyle=none;rounded=0;orthogonalLoop=1;jettySize=auto;html=1;exitX=1;exitY=0.5;exitDx=0;exitDy=0;entryX=0;entryY=0.5;entryDx=0;entryDy=0;fontSize=10;endArrow=oval;endFill=1;startArrow=oval;startFill=1;fillColor=#fff2cc;strokeColor=#d6b656;" edge="1" parent="1" source="n_MndKxWnpL39BQ449wi-36" target="n_MndKxWnpL39BQ449wi-22">
          <mxGeometry relative="1" as="geometry" />
        </mxCell>
        <mxCell id="n_MndKxWnpL39BQ449wi-62" style="edgeStyle=none;rounded=0;orthogonalLoop=1;jettySize=auto;html=1;exitX=0.5;exitY=1;exitDx=0;exitDy=0;fontSize=10;startArrow=oval;startFill=1;endArrow=oval;endFill=1;entryX=0.5;entryY=1;entryDx=0;entryDy=0;fillColor=#f8cecc;strokeColor=#b85450;" edge="1" parent="1" source="n_MndKxWnpL39BQ449wi-24" target="n_MndKxWnpL39BQ449wi-32">
          <mxGeometry relative="1" as="geometry">
            <mxPoint x="845" y="480" as="targetPoint" />
            <Array as="points">
              <mxPoint x="915" y="480" />
              <mxPoint x="435" y="480" />
            </Array>
          </mxGeometry>
        </mxCell>
        <mxCell id="n_MndKxWnpL39BQ449wi-63" style="edgeStyle=none;rounded=0;orthogonalLoop=1;jettySize=auto;html=1;exitX=0.5;exitY=1;exitDx=0;exitDy=0;fontSize=10;startArrow=oval;startFill=1;endArrow=oval;endFill=1;entryX=0.5;entryY=1;entryDx=0;entryDy=0;" edge="1" parent="1" source="n_MndKxWnpL39BQ449wi-25" target="n_MndKxWnpL39BQ449wi-33">
          <mxGeometry relative="1" as="geometry">
            <mxPoint x="915" y="480" as="targetPoint" />
            <Array as="points">
              <mxPoint x="845" y="440" />
              <mxPoint x="525" y="440" />
            </Array>
          </mxGeometry>
        </mxCell>
        <mxCell id="n_MndKxWnpL39BQ449wi-67" style="edgeStyle=none;rounded=0;orthogonalLoop=1;jettySize=auto;html=1;exitX=0;exitY=0.5;exitDx=0;exitDy=0;fontSize=10;startArrow=oval;startFill=1;endArrow=oval;endFill=1;fillColor=#f8cecc;strokeColor=#b85450;" edge="1" parent="1" source="n_MndKxWnpL39BQ449wi-7">
          <mxGeometry relative="1" as="geometry">
            <mxPoint x="690" y="480" as="targetPoint" />
            <Array as="points">
              <mxPoint x="690" y="94" />
            </Array>
          </mxGeometry>
        </mxCell>
        <mxCell id="n_MndKxWnpL39BQ449wi-73" style="edgeStyle=none;rounded=0;orthogonalLoop=1;jettySize=auto;html=1;fontSize=10;startArrow=oval;startFill=1;endArrow=oval;endFill=1;exitX=0;exitY=0.5;exitDx=0;exitDy=0;exitPerimeter=0;" edge="1" parent="1" source="n_MndKxWnpL39BQ449wi-69">
          <mxGeometry relative="1" as="geometry">
            <mxPoint x="580" y="440" as="targetPoint" />
            <mxPoint x="620" y="79" as="sourcePoint" />
            <Array as="points">
              <mxPoint x="580" y="79" />
            </Array>
          </mxGeometry>
        </mxCell>
        <mxCell id="n_MndKxWnpL39BQ449wi-69" value="220 OHM" style="pointerEvents=1;verticalLabelPosition=bottom;shadow=0;dashed=0;align=center;html=1;verticalAlign=top;shape=mxgraph.electrical.resistors.resistor_2;fontSize=10;" vertex="1" parent="1">
          <mxGeometry x="630" y="74" width="50" height="10" as="geometry" />
        </mxCell>
        <mxCell id="n_MndKxWnpL39BQ449wi-72" style="edgeStyle=none;rounded=0;orthogonalLoop=1;jettySize=auto;html=1;exitX=0;exitY=0.5;exitDx=0;exitDy=0;entryX=1;entryY=0.5;entryDx=0;entryDy=0;entryPerimeter=0;fontSize=10;startArrow=oval;startFill=1;endArrow=oval;endFill=1;" edge="1" parent="1" source="n_MndKxWnpL39BQ449wi-6" target="n_MndKxWnpL39BQ449wi-69">
          <mxGeometry relative="1" as="geometry" />
        </mxCell>
        <mxCell id="n_MndKxWnpL39BQ449wi-76" style="edgeStyle=none;rounded=0;orthogonalLoop=1;jettySize=auto;html=1;exitX=0;exitY=0.25;exitDx=0;exitDy=0;exitPerimeter=0;fontSize=10;startArrow=oval;startFill=1;endArrow=oval;endFill=1;fillColor=#f8cecc;strokeColor=#b85450;" edge="1" parent="1" source="n_MndKxWnpL39BQ449wi-74">
          <mxGeometry relative="1" as="geometry">
            <mxPoint x="648" y="480" as="targetPoint" />
          </mxGeometry>
        </mxCell>
        <mxCell id="n_MndKxWnpL39BQ449wi-77" style="edgeStyle=none;rounded=0;orthogonalLoop=1;jettySize=auto;html=1;exitX=1;exitY=0.25;exitDx=0;exitDy=0;exitPerimeter=0;fontSize=10;startArrow=oval;startFill=1;endArrow=oval;endFill=1;" edge="1" parent="1" source="n_MndKxWnpL39BQ449wi-74">
          <mxGeometry relative="1" as="geometry">
            <mxPoint x="610" y="440" as="targetPoint" />
            <Array as="points">
              <mxPoint x="610" y="275" />
            </Array>
          </mxGeometry>
        </mxCell>
        <mxCell id="n_MndKxWnpL39BQ449wi-74" value="10K&amp;nbsp;" style="pointerEvents=1;verticalLabelPosition=bottom;shadow=0;dashed=0;align=center;html=1;verticalAlign=top;shape=mxgraph.electrical.resistors.potentiometer_2;fontSize=10;rotation=-90;" vertex="1" parent="1">
          <mxGeometry x="615" y="300" width="80" height="30" as="geometry" />
        </mxCell>
        <mxCell id="n_MndKxWnpL39BQ449wi-78" style="edgeStyle=none;rounded=0;orthogonalLoop=1;jettySize=auto;html=1;exitX=0;exitY=0.5;exitDx=0;exitDy=0;entryX=0.5;entryY=1;entryDx=0;entryDy=0;entryPerimeter=0;fontSize=10;startArrow=oval;startFill=1;endArrow=oval;endFill=1;" edge="1" parent="1" source="n_MndKxWnpL39BQ449wi-46" target="n_MndKxWnpL39BQ449wi-74">
          <mxGeometry relative="1" as="geometry" />
        </mxCell>
        <mxCell id="n_MndKxWnpL39BQ449wi-79" style="edgeStyle=none;rounded=0;orthogonalLoop=1;jettySize=auto;html=1;exitX=0;exitY=0.5;exitDx=0;exitDy=0;fontSize=10;startArrow=oval;startFill=1;endArrow=oval;endFill=1;fillColor=#f8cecc;strokeColor=#b85450;" edge="1" parent="1" source="n_MndKxWnpL39BQ449wi-26">
          <mxGeometry relative="1" as="geometry">
            <mxPoint x="730" y="480" as="targetPoint" />
            <Array as="points">
              <mxPoint x="730" y="280" />
            </Array>
          </mxGeometry>
        </mxCell>
        <mxCell id="n_MndKxWnpL39BQ449wi-80" value="Text" style="text;html=1;strokeColor=none;fillColor=none;align=center;verticalAlign=middle;whiteSpace=wrap;rounded=0;fontSize=10;" vertex="1" parent="1">
          <mxGeometry x="420" y="240" width="60" height="30" as="geometry" />
        </mxCell>
      </root>
    </mxGraphModel>
  </diagram>
</mxfile>
